# AST/ASF file generated using VICON BodyLanguage
# -----------------------------------------------
:version 1.10
:name VICON
:units
  mass 1.0
  length 0.45
  angle deg
:documentation
   .ast/.asf automatically generated from VICON data using
   VICON BodyBuilder and BodyLanguage model FoxedUp or BRILLIANT.MOD
:root
   order TX TY TZ RX RY RZ
   axis XYZ
   position 0 0 0  
   orientation 0 0 0 
:bonedata
  begin
     id 1 
     name lhipjoint
     direction 0.710188 -0.616876 0.339259 
     length 2.5669 
     axis 0 0 0  XYZ
  end
  begin
     id 2 
     name lfemur
     direction 0.34202 -0.939693 0  
     length 7.12796  
     axis 0 0 20  XYZ
    dof rx ry rz
    limits (-160.0 20.0)
           (-70.0 70.0)
           (-60.0 70.0)
  end
  begin
     id 3 
     name ltibia
     direction 0.34202 -0.939693 0   
     length 7.58108   
     axis 0 0 20   XYZ
    dof rx
    limits (-10.0 170.0)
  end
  begin
     id 4 
     name lfoot
     direction 0.0669471 -0.183936 0.980656   
     length 2.17365   
     axis -90 7.62852e-016 20   XYZ
    dof rx rz
    limits (-45.0 90.0)
           (-70.0 20.0)
  end
  begin
     id 5 
     name ltoes
     direction 1.53508e-011 -4.21705e-011 1   
     length 1.09427   
     axis -90 7.62852e-016 20   XYZ
    dof rx
    limits (-90.0 20.0)
  end
  begin
     id 6 
     name rhipjoint
     direction -0.700191 -0.625589 0.34405   
     length 2.53115  
     axis 0 0 0  XYZ 
  end
  begin
     id 7 
     name rfemur
     direction -0.34202 -0.939693 0   
     length 7.33006   
     axis 0 0 -20   XYZ
    dof rx ry rz
    limits (-160.0 20.0)
           (-70.0 70.0)
           (-70.0 60.0)
  end
  begin
     id 8 
     name rtibia
     direction -0.34202 -0.939693 0   
     length 7.64926   
     axis 0 0 -20   XYZ
    dof rx
    limits (-10.0 170.0)
 end
 begin
     id 9 
     name rfoot
     direction -0.0688927 -0.189281 0.979503   
     length 2.20493  
     axis -90 -7.62852e-016 -20   XYZ
    dof rx rz
    limits (-45.0 90.0)
           (-20.0 70.0)
  end
  begin
     id 10 
     name rtoes
     direction -1.53567e-011 -4.21933e-011 1   
     length 1.10919   
     axis -90 -7.62852e-016 -20   XYZ
    dof rx
    limits (-90.0 20.0)
  end
  begin
     id 11 
     name lowerback
     direction -0.0167868 0.989873 -0.140959   
     length 2.14596   
     axis 0 0 0   XYZ
    dof rx ry rz
    limits (-20.0 45.0)
           (-30.0 30.0)
           (-30.0 30.0)
  end
  begin
     id 12 
     name upperback
     direction 0.0129109 0.998033 0.0613525   
     length 2.10457   
     axis 0 0 0   XYZ
    dof rx ry rz
    limits (-20.0 45.0)
           (-30.0 30.0)
           (-30.0 30.0)
  end
  begin
     id 13 
     name thorax
     direction 0.0177047 0.991119 0.131797   
     length 2.17652   
     axis 0 0 0   XYZ
    dof rx ry rz
    limits (-20.0 45.0)
           (-30.0 30.0)
           (-30.0 30.0)
  end
  begin
     id 14 
     name lowerneck
     direction -0.0336893 0.997548 0.0613464   
     length 1.8912   
     axis 0 0 0   XYZ
    dof rx ry rz
    limits (-20.0 45.0)
           (-30.0 30.0)
           (-30.0 30.0)
  end
  begin
     id 15 
     name upperneck
     direction 0.0435909 0.997179 -0.0611028   
     length 1.8829   
     axis 0 0 0   XYZ
    dof rx ry rz
    limits (-20.0 45.0)
           (-30.0 30.0)
           (-30.0 30.0)
  end
  begin
     id 16
     name head
     direction 0.0175076 0.999444 -0.0283782  
     length 1.93197  
     axis 0 0 0   XYZ
    dof rx ry rz
    limits (-20.0 45.0)
           (-30.0 30.0)
           (-30.0 30.0)
  end
  begin
     id 17 
     name lclavicle
     direction 0.919164 0.389875 0.0559876  
     length 3.60004  
     axis 0 0 0   XYZ
    dof ry rz
    limits (-20.0 10.0)
           (0.0 20.0)
  end
  begin
     id 18 
     name lhumerus
     direction 1 -4.48958e-011 6.89191e-027   
     length 5.43301   
     axis 180 -30 -90   XYZ
    dof rx ry rz
    limits (-60.0 90.0)
           (-90.0 90.0)
           (-90.0 90.0)
  end
  begin
     id 19
     name lradius
     direction 1 -4.4897e-011 3.24727e-027   
     length 3.15936   
     axis 180 -30 -90   XYZ
    dof rx
    limits (-10.0 170.0)
  end
  begin
     id 20
     name lwrist
     direction 1 -4.4897e-011 9.00228e-027   
     length 1.57968   
     axis -6.29373e-015 90 90   XYZ
    dof ry
    limits (-180.0 0.0)
 end
  begin
     id 21 
     name lhand
     direction 1 -4.48968e-011 1.80042e-026   
     length 0.712827   
     axis -1.14882e-014 90 90   XYZ
    dof rx rz
    limits (-90.0 90.0)
           (-45.0 45.0)
  end
  begin
     id 22 
     name lfingers
     direction 1 -4.49019e-011 3.60267e-026   
     length 0.574699   
     axis -2.29769e-014 90 90   XYZ
    dof rx
    limits (0.0 90.0)
  end
  begin
     id 23
     name lthumb
     direction 0.707107 -6.3498e-011 0.707107   
     length 0.825157   
     axis -90 45 5.37419e-014   XYZ
    dof rx rz
    limits (-45.0 45.0)
           (-45.0 45.0)
  end
  begin
     id 24 
     name rclavicle
     direction -0.890334 0.455305 -0.00132111   
     length 3.51494  
     axis 0 0 0   XYZ 
    dof ry rz
    limits (-10.0 20.0)
           (-20.0 0.0)
  end
  begin
     id 25 
     name rhumerus
     direction -1 -4.48967e-011 5.07175e-028  
     length 5.34194   
     axis 180 30 90   XYZ
    dof rx ry rz
    limits (-90.0 60.0)
           (-90.0 90.0)
           (-90.0 90.0)
  end
  begin
     id 26 
     name rradius
     direction -1 -4.48955e-011 3.30467e-027   
     length 3.19351   
     axis 180 30 90   XYZ
    dof rx
    limits (-10.0 170.0)
  end
  begin
     id 27 
     name rwrist
     direction -1 -4.48968e-011 9.00208e-027   
     length 1.59676   
     axis -6.29373e-015 -90 -90   XYZ
    dof ry
    limits (-180.0 0.0)
  end
  begin
     id 28
     name rhand
     direction -1 -4.49e-011 1.80099e-026   
     length 0.743862   
     axis -1.14882e-014 -90 -90   XYZ
    dof rx rz
    limits (-90.0 90.0)
           (-45.0 45.0)
  end
  begin
     id 29
     name rfingers
     direction -1 -4.49009e-011 3.6023e-026   
     length 0.599721   
     axis -2.29769e-014 -90 -90   XYZ
    dof rx
    limits (0.0 90.0)
  end
  begin
     id 30
     name rthumb
     direction -0.707107 -6.35025e-011 0.707107   
     length 0.861083   
     axis -90 -45 -5.37419e-014   XYZ
    dof rx rz
    limits (-45.0 45.0)
           (-45.0 45.0)
  end
:hierarchy
  begin
    root lhipjoint rhipjoint lowerback
    lhipjoint lfemur
    lfemur ltibia
    ltibia lfoot
    lfoot ltoes
    rhipjoint rfemur
    rfemur rtibia
    rtibia rfoot
    rfoot rtoes
    lowerback upperback
    upperback thorax
    thorax lowerneck lclavicle rclavicle
    lowerneck upperneck
    upperneck head
    lclavicle lhumerus
    lhumerus lradius
    lradius lwrist
    lwrist lhand lthumb
    lhand lfingers
    rclavicle rhumerus
    rhumerus rradius
    rradius rwrist
    rwrist rhand rthumb
    rhand rfingers
  end

#!OML:ASF H:\Martial Arts Walks\Project 1\Capture day 1\Session 1\male.ASF
:FULLY-SPECIFIED
:DEGREES
688
root -1.44737 14.0226 0.647909 7.44443 -56.3384 -10.0283
lowerback 15.4282 6.11085 3.0314
upperback -3.58343 8.97765 1.42026
thorax -12.373 4.04759 -2.41909
lowerneck -2.27684 8.64808 1.55786
upperneck 7.52968 11.2592 3.20157
head 2.67977 5.73493 1.09161
rclavicle -7.40519e-014 -6.75868e-015
rhumerus -55.3908 49.8765 -111.295
rradius 113.882
rwrist -82.6464
rhand 5.83722 -29.6538
rfingers 7.12502
rthumb 31.1682 -57.0231
lclavicle -7.40519e-014 -6.75868e-015
lhumerus 1.95343 13.0691 80.7672
lradius 90.1614
lwrist -19.35
lhand -37.7027 46.5367
lfingers 7.12502
lthumb -10.7525 76.2415
rfemur -29.5373 -27.8812 17.3239
rtibia 80.6707
rfoot -34.8256 -20.8179
rtoes -12.4827
lfemur -53.0364 42.2947 -5.29408
ltibia 65.207
lfoot 1.06576 4.26697
ltoes 1.88774
689
root -1.4546 14.0226 0.653004 7.50188 -56.2395 -10.0743
lowerback 15.3963 6.09954 3.04352
upperback -3.59827 8.9646 1.422
thorax -12.3701 4.04094 -2.41767
lowerneck -2.27263 8.62559 1.55231
upperneck 7.48883 11.2297 3.21146
head 2.66453 5.72016 1.09279
rclavicle 2.79494e-014 -1.2921e-014
rhumerus -55.3966 49.806 -111.304
rradius 113.874
rwrist -82.6087
rhand 5.86776 -29.6481
rfingers 7.12502
rthumb 31.1973 -57.0117
lclavicle 2.79494e-014 -1.2921e-014
lhumerus 1.95269 13.0297 80.7349
lradius 90.0898
lwrist -19.388
lhand -37.7089 46.4765
lfingers 7.12502
lthumb -10.7585 76.181
rfemur -29.4711 -27.991 17.3303
rtibia 80.6344
rfoot -34.8515 -20.7873
rtoes -12.7345
lfemur -53.1065 42.2341 -5.2957
ltibia 65.2482
lfoot 1.04784 4.25625
ltoes 1.95437
690
root -1.46199 14.0224 0.657857 7.55481 -56.1393 -10.1117
lowerback 15.3646 6.08761 3.05124
upperback -3.61389 8.94974 1.42255
thorax -12.3688 4.03365 -2.41484
lowerneck -2.27099 8.60383 1.54566
upperneck 7.45046 11.2019 3.21247
head 2.65108 5.70589 1.0917
rclavicle 9.58313e-014 6.65929e-015
rhumerus -55.3967 49.7249 -111.306
rradius 113.874
rwrist -82.5617
rhand 5.91249 -29.635
rfingers 7.12502
rthumb 31.2399 -56.9904
lclavicle 9.58313e-014 6.65929e-015
lhumerus 1.95488 12.9893 80.6941
lradius 90.0181
lwrist -19.4113
lhand -37.7279 46.4093
lfingers 7.12502
lthumb -10.7768 76.1129
rfemur -29.4111 -28.1044 17.3351
rtibia 80.6042
rfoot -34.8815 -20.7559
rtoes -12.9912
lfemur -53.1797 42.1666 -5.30115
ltibia 65.2902
lfoot 1.03088 4.24971
ltoes 2.01685
691
root -1.46946 14.022 0.662575 7.60594 -56.0454 -10.144
lowerback 15.3328 6.07695 3.05487
upperback -3.62959 8.9357 1.42255
thorax -12.3679 4.02701 -2.4106
lowerneck -2.2725 8.58337 1.53613
upperneck 7.41615 11.1763 3.2061
head 2.63984 5.6925 1.0892
rclavicle 8.47584e-014 2.47487e-014
rhumerus -55.3931 49.6386 -111.303
rradius 113.881
rwrist -82.5116
rhand 5.97051 -29.6165
rfingers 7.12502
rthumb 31.2952 -56.9612
lclavicle 8.47584e-014 2.47487e-014
lhumerus 1.96024 12.9517 80.6462
lradius 89.9468
lwrist -19.4269
lhand -37.7542 46.34
lfingers 7.12502
lthumb -10.8022 76.0422
rfemur -29.3586 -28.2144 17.3397
rtibia 80.5802
rfoot -34.9147 -20.7238
rtoes -13.2475
lfemur -53.2523 42.1007 -5.30683
ltibia 65.3336
lfoot 1.01457 4.24393
ltoes 2.07706
692
root -1.47695 14.0214 0.667248 7.65855 -55.9637 -10.1749
lowerback 15.2997 6.06899 3.05484
upperback -3.645 8.92452 1.42276
thorax -12.3665 4.02203 -2.40471
lowerneck -2.27717 8.56479 1.52291
upperneck 7.387 11.1536 3.19461
head 2.63098 5.68035 1.08617
rclavicle -7.80929e-014 2.68359e-015
rhumerus -55.3892 49.5532 -111.297
rradius 113.893
rwrist -82.4624
rhand 6.03768 -29.5942
rfingers 7.12502
rthumb 31.3592 -56.9265
lclavicle -7.80929e-014 2.68359e-015
lhumerus 1.96902 12.921 80.5926
lradius 89.8761
lwrist -19.4432
lhand -37.7803 46.2753
lfingers 7.12502
lthumb -10.8274 75.9762
rfemur -29.3149 -28.3145 17.3459
rtibia 80.5618
rfoot -34.9499 -20.692
rtoes -13.4997
lfemur -53.3218 42.044 -5.30987
ltibia 65.379
lfoot 0.998663 4.23646
ltoes 2.13553
693
root -1.48439 14.0206 0.671938 7.71493 -55.8975 -10.2066
lowerback 15.2645 6.06458 3.0515
upperback -3.66004 8.91739 1.42353
thorax -12.3639 4.01929 -2.39712
lowerneck -2.28458 8.54847 1.50631
upperneck 7.36337 11.134 3.18065
head 2.62439 5.66967 1.08336
rclavicle -7.70958e-014 -3.43897e-014
rhumerus -55.3884 49.4735 -111.294
rradius 113.91
rwrist -82.4155
rhand 6.10756 -29.57
rfingers 7.12502
rthumb 31.4258 -56.8894
lclavicle -7.70958e-014 -3.43897e-014
lhumerus 1.98154 12.9005 80.5357
lradius 89.806
lwrist -19.467
lhand -37.7994 46.2209
lfingers 7.12502
lthumb -10.8458 75.9208
rfemur -29.2809 -28.4006 17.3551
rtibia 80.5485
rfoot -34.9865 -20.6606
rtoes -13.7431
lfemur -53.3877 42.0011 -5.30931
ltibia 65.4263
lfoot 0.982817 4.22597
ltoes 2.1906
694
root -1.49174 14.0197 0.676675 7.77609 -55.8477 -10.2399
lowerback 15.2266 6.06387 3.04528
upperback -3.67502 8.91458 1.42481
thorax -12.3599 4.01891 -2.38817
lowerneck -2.293 8.53458 1.48802
upperneck 7.34421 11.1177 3.16603
head 2.61941 5.66059 1.08095
rclavicle 9.3376e-014 2.0276e-014
rhumerus -55.3937 49.4028 -111.297
rradius 113.928
rwrist -82.3708
rhand 6.17309 -29.5441
rfingers 7.12502
rthumb 31.4882 -56.8513
lclavicle 9.3376e-014 2.0276e-014
lhumerus 1.99768 12.8923 80.4781
lradius 89.7368
lwrist -19.5006
lhand -37.8064 46.1789
lfingers 7.12502
lthumb -10.8525 75.8785
rfemur -29.257 -28.4717 17.3675
rtibia 80.5397
rfoot -35.0242 -20.629
rtoes -13.9722
lfemur -53.4507 41.9736 -5.30591
ltibia 65.4755
lfoot 0.966899 4.21232
ltoes 2.24045
695
root -1.49895 14.0186 0.681467 7.83968 -55.8125 -10.2722
lowerback 15.1866 6.06646 3.03585
upperback -3.69018 8.91547 1.42575
thorax -12.3552 4.02054 -2.37851
lowerneck -2.30064 8.52315 1.46973
upperneck 7.32786 11.1046 3.15267
head 2.61512 5.65314 1.07907
rclavicle 2.9386e-014 -2.05742e-014
rhumerus -55.4071 49.3429 -111.31
rradius 113.944
rwrist -82.3274
rhand 6.22622 -29.517
rfingers 7.12502
rthumb 31.5389 -56.8144
lclavicle 2.9386e-014 -2.05742e-014
lhumerus 2.01726 12.8967 80.4224
lradius 89.6691
lwrist -19.5412
lhand -37.8009 46.1485
lfingers 7.12502
lthumb -10.8472 75.8484
rfemur -29.2427 -28.5293 17.381
rtibia 80.535
rfoot -35.0626 -20.5967
rtoes -14.1838
lfemur -53.5118 41.9605 -5.30253
ltibia 65.5259
lfoot 0.950953 4.19601
ltoes 2.283
696
root -1.50598 14.0175 0.686292 7.90165 -55.7887 -10.2994
lowerback 15.1455 6.07163 3.02261
upperback -3.70552 8.91883 1.42511
thorax -12.3502 4.02356 -2.36897
lowerneck -2.30551 8.51393 1.45248
upperneck 7.31173 11.0942 3.14251
head 2.61026 5.64714 1.07796
rclavicle -8.06584e-014 -4.95968e-014
rhumerus -55.4289 49.2939 -111.334
rradius 113.957
rwrist -82.2853
rhand 6.26059 -29.4889
rfingers 7.12502
rthumb 31.5716 -56.7798
lclavicle -8.06584e-014 -4.95968e-014
lhumerus 2.04017 12.9117 80.3708
lradius 89.6043
lwrist -19.583
lhand -37.7845 46.1271
lfingers 7.12502
lthumb -10.8314 75.8278
rfemur -29.2369 -28.5772 17.3923
rtibia 80.5344
rfoot -35.101 -20.5631
rtoes -14.3756
lfemur -53.5722 41.9586 -5.30293
ltibia 65.5767
lfoot 0.935521 4.1777
ltoes 2.31721
697
root -1.51281 14.0164 0.691128 7.95729 -55.7724 -10.3174
lowerback 15.1046 6.07822 3.00526
upperback -3.72064 8.923 1.4218
thorax -12.3452 4.02717 -2.36031
lowerneck -2.30531 8.5064 1.43676
upperneck 7.29267 11.0859 3.13632
head 2.60331 5.64228 1.07749
rclavicle 7.10686e-014 -1.58034e-014
rhumerus -55.4582 49.2559 -111.369
rradius 113.964
rwrist -82.2459
rhand 6.27203 -29.4621
rfingers 7.12502
rthumb 31.5825 -56.7509
lclavicle 7.10686e-014 -1.58034e-014
lhumerus 2.0663 12.9347 80.3245
lradius 89.5439
lwrist -19.6194
lhand -37.7609 46.1115
lfingers 7.12502
lthumb -10.8087 75.8134
rfemur -29.2374 -28.6201 17.3976
rtibia 80.5376
rfoot -35.1392 -20.5266
rtoes -14.5463
lfemur -53.6321 41.964 -5.31031
ltibia 65.6273
lfoot 0.921132 4.15817
ltoes 2.3461
698
root -1.51943 14.0152 0.695946 8.00269 -55.7599 -10.3233
lowerback 15.0651 6.08498 2.98375
upperback -3.73478 8.92623 1.41537
thorax -12.34 4.03051 -2.35265
lowerneck -2.29839 8.50006 1.42199
upperneck 7.26837 11.079 3.13422
head 2.59317 5.63824 1.07759
rclavicle -1.34829e-013 -1.66979e-014
rhumerus -55.4932 49.2288 -111.414
rradius 113.965
rwrist -82.213
rhand 6.25956 -29.4405
rfingers 7.12502
rthumb 31.5706 -56.7316
lclavicle -1.34829e-013 -1.66979e-014
lhumerus 2.09547 12.9634 80.2839
lradius 89.4893
lwrist -19.6455
lhand -37.7351 46.097
lfingers 7.12502
lthumb -10.7838 75.8002
rfemur -29.2414 -28.6626 17.3937
rtibia 80.5443
rfoot -35.1758 -20.4878
rtoes -14.7011
lfemur -53.6915 41.9728 -5.3265
ltibia 65.6771
lfoot 0.908332 4.13811
ltoes 2.3744
699
root -1.52583 14.0139 0.700722 8.03683 -55.7484 -10.318
lowerback 15.0281 6.09071 2.95947
upperback -3.74699 8.92724 1.40631
thorax -12.3341 4.03292 -2.34597
lowerneck -2.28413 8.4944 1.40734
upperneck 7.23826 11.0731 3.13559
head 2.57953 5.63468 1.07813
rclavicle 1.92163e-013 1.6201e-014
rhumerus -55.5321 49.2128 -111.466
rradius 113.96
rwrist -82.1909
rhand 6.22669 -29.4278
rfingers 7.12502
rthumb 31.5393 -56.7251
lclavicle 1.92163e-013 1.6201e-014
lhumerus 2.12798 12.996 80.2487
lradius 89.4411
lwrist -19.6597
lhand -37.7106 46.0805
lfingers 7.12502
lthumb -10.7601 75.785
rfemur -29.2459 -28.7088 17.38
rtibia 80.5536
rfoot -35.2093 -20.4479
rtoes -14.8473
lfemur -53.7495 41.9824 -5.3503
ltibia 65.7258
lfoot 0.89728 4.11806
ltoes 2.40672
700
root -1.53203 14.0126 0.705448 8.06124 -55.7364 -10.3051
lowerback 14.9941 6.09455 2.93473
upperback -3.7564 8.92543 1.39574
thorax -12.3267 4.03404 -2.34016
lowerneck -2.2624 8.48911 1.39209
upperneck 7.20296 11.0679 3.13917
head 2.56262 5.63141 1.07884
rclavicle -2.974e-014 -1.31198e-014
rhumerus -55.5728 49.2079 -111.521
rradius 113.95
rwrist -82.1839
rhand 6.17905 -29.4249
rfingers 7.12502
rthumb 31.4939 -56.7311
lclavicle -2.974e-014 -1.31198e-014
lhumerus 2.16444 13.0314 80.2181
lradius 89.3985
lwrist -19.664
lhand -37.691 46.0596
lfingers 7.12502
lthumb -10.7412 75.765
rfemur -29.2481 -28.7606 17.3579
rtibia 80.5642
rfoot -35.2381 -20.4092
rtoes -14.9947
lfemur -53.8049 41.9914 -5.37852
ltibia 65.7736
lfoot 0.88756 4.09865
ltoes 2.44652
701
root -1.538 14.0112 0.710129 8.07931 -55.7234 -10.2899
lowerback 14.963 6.09615 2.91227
upperback -3.76234 8.92097 1.385
thorax -12.3168 4.03382 -2.33521
lowerneck -2.23482 8.48417 1.37586
upperneck 7.1652 11.0632 3.1443
head 2.54368 5.62839 1.07978
rclavicle -7.74825e-014 -1.63997e-014
rhumerus -55.6134 49.2135 -111.576
rradius 113.936
rwrist -82.194
rhand 6.12451 -29.4301
rfingers 7.12502
rthumb 31.442 -56.7464
lclavicle -7.74825e-014 -1.63997e-014
lhumerus 2.20589 13.0686 80.191
lradius 89.3598
lwrist -19.6635
lhand -37.6776 46.034
lfingers 7.12502
lthumb -10.7283 75.7401
rfemur -29.2455 -28.8182 17.33
rtibia 80.5745
rfoot -35.2613 -20.3736
rtoes -15.149
lfemur -53.8563 41.9997 -5.40678
ltibia 65.8207
lfoot 0.878546 4.08031
ltoes 2.49453
702
root -1.54374 14.0098 0.714782 8.0951 -55.71 -10.2781
lowerback 14.935 6.09557 2.89475
upperback -3.76447 8.91459 1.37532
thorax -12.3038 4.0325 -2.33143
lowerneck -2.20391 8.47971 1.35902
upperneck 7.1284 11.0591 3.15058
head 2.52436 5.62567 1.08103
rclavicle -1.73573e-013 -1.12313e-014
rhumerus -55.6526 49.2286 -111.628
rradius 113.921
rwrist -82.2205
rhand 6.07224 -29.438
rfingers 7.12502
rthumb 31.3922 -56.764
lclavicle -1.73573e-013 -1.12313e-014
lhumerus 2.25331 13.1069 80.1665
lradius 89.3225
lwrist -19.6648
lhand -37.6682 46.0046
lfingers 7.12502
lthumb -10.7193 75.7111
rfemur -29.2369 -28.8805 17.2999
rtibia 80.5832
rfoot -35.2789 -20.3425
rtoes -15.3125
lfemur -53.9024 42.0077 -5.43046
ltibia 65.8677
lfoot 0.869372 4.06337
ltoes 2.55007
